<svg xmlns="http://www.w3.org/2000/svg" viewBox="0 0 46.16 50.98" id="tumblr"><defs><linearGradient id="a" x1="3.77" x2="42.4" y1="9.28" y2="41.7" gradientUnits="userSpaceOnUse"><stop offset="0" stop-color="#477da8"></stop><stop offset="1" stop-color="#2a445d"></stop></linearGradient></defs><g style="isolation:isolate"><g><g><g><path fill="url(#a)" d="M46.16,16.49v18c0,2.67-1.43,5.15-3.74,6.48l-11.1,6.4-1.83,1.06-1.09.63-.58.34-.08.05-.06.03-.07.04-.74.43h-.01s-.04.03-.04.03c-.02.01-.03.02-.05.02-.16.09-.33.18-.5.26-2.21,1.04-4.8.95-6.93-.28l-15.59-9.01c-2.32-1.33-3.75-3.81-3.75-6.48v-18c0-2.68,1.43-5.15,3.75-6.49L19.34,1c2.31-1.34,5.17-1.34,7.48,0l15.6,9c2.31,1.34,3.74,3.81,3.74,6.49Z"></path><path d="M46.16,32.82v1.67c0,2.67-1.43,5.15-3.74,6.48l-11.1,6.4c-4.53-4.52-8.97-8.96-10.7-10.7-.05-.05-.11-.1-.16-.16-.26-.25-.48-.51-.67-.77-.02-.01-.04-.04-.05-.07-.06-.09-.12-.17-.17-.25-.07-.09-.12-.19-.17-.28-.06-.09-.1-.18-.15-.28-.06-.09-.1-.18-.13-.27-.04-.09-.08-.18-.11-.27-.22-.53-.32-1.02-.36-1.37-.01-.06-.01-.11-.01-.17-.01-.05-.01-.1-.01-.14v-5.31c-1.11-1.2-2.25-2.39-3.48-3.47v-.14h-.15v-4.65c3.11-1.42,5.4-4.31,5.98-7.79h3.72c4.16,4.27,13.53,13.62,21.46,21.54Z" style="mix-blend-mode:multiply" fill="#2a445d"></path><path fill="#fff" d="M29.25,32.83s-.81.93-2.33.93-2.22-.93-2.22-2.29v-7.75h4.95v-4.7h-4.95v-7.74h-3.72c-.58,3.48-2.87,6.37-5.98,7.79v4.65h3.63v8.92s0,.09.01.14c0,.06,0,.11.01.17.04.35.14.84.36,1.37.03.09.07.18.11.27.03.09.07.18.13.27.05.1.09.19.15.28.05.09.1.19.17.28.05.08.11.16.17.25.01.03.03.06.05.07.19.27.41.53.67.77.05.06.11.11.16.16,1.08.96,2.71,1.71,5.13,1.71,3.5,0,4.95-2.25,4.95-2.25l-1.45-3.3Z"></path></g></g></g></g></svg>